<svg xmlns="http://www.w3.org/2000/svg" xmlns:xlink="http://www.w3.org/1999/xlink" aria-label="Vite" role="img" viewBox="0 0 512 512"><rect width="512" height="512" rx="15%" fill="#1B2228"/><path d="M255.153 450c-1.903 0-3.805-.463-5.517-1.39L218.385 430c-5.232-2.927-2.677-3.958-1.04-4.567 6.376-2.22 7.659-2.73 14.488-6.598.71-.41 1.645-.258 2.374.153l24.37 14.469c.888.482 2.14.482 2.958 0l95.02-54.836c.888-.513 1.468-1.534 1.468-2.601V164.785c0-1.094-.58-2.087-1.494-2.627L261.516 107.4c-.888-.513-2.072-.513-2.96 0l-95.016 54.758c-.915.54-1.521 1.56-1.521 2.627v109.545c0 1.066.606 2.086 1.494 2.6l26.035 15.028c14.131 7.065 22.76-1.259 22.76-9.601V178.24c0-1.533 1.218-2.72 2.751-2.72h12.01c1.507 0 2.751 1.187 2.751 2.72v103.882c0 18.79-10.237 29.58-28.088 29.58-5.48 0-9.793 0-21.822-5.92l-24.905-13.928c-3.41-1.97-5.518-5.616-5.518-9.52V164.785c0-3.904 2.107-7.55 5.518-9.52l95.02-54.864c3.33-1.894 7.762-1.894 11.065 0l95.02 54.864c3.41 1.97 5.518 5.616 5.518 9.52v109.672c0 3.904-2.108 7.55-5.518 9.52l-95.02 54.836c-3.303 1.894-7.736 1.894-11.065 0z" fill="#BD34FE"/><path d="M291.219 354.658c-41.563 0-50.297-19.09-50.297-35.084 0-1.533 1.218-2.72 2.752-2.72h12.244c1.36 0 2.497.993 2.724 2.32 1.853 12.473 7.39 18.757 32.577 18.757 20.044 0 28.586-4.535 28.586-15.166 0-6.12-2.42-10.663-33.51-13.712-26.01-2.58-42.118-8.307-42.118-29.103 0-19.168 16.16-30.584 43.265-30.584 30.432 0 45.49 10.556 47.368 33.237.07.796-.222 1.56-.74 2.14a2.742 2.742 0 0 1-2.057.924h-12.297a2.746 2.746 0 0 1-2.68-2.142c-2.97-13.139-10.199-17.352-29.594-17.352-21.786 0-24.33 7.593-24.33 13.279 0 6.892 2.997 8.905 32.513 12.798 29.218 3.864 43.064 9.328 43.064 29.876 0 20.686-17.25 32.52-47.27 32.52z" fill="#FF3E00"/></svg>
